<svg width="512" height="512" xmlns="http://www.w3.org/2000/svg">
 <g id="Layer_1">
  <title>Layer 1</title>
  <path stroke="#fff" fill="#b08db5" stroke-width="0" d="m258.96907,64.95305c-30.88406,30.90242 -42.91491,73.08375 -37.13791,113.21105l57.25656,-57.25658c0.07335,-0.09171 0.25676,-0.14672 0.29344,-0.22007c3.85134,-7.3909 8.50963,-14.47004 14.70844,-20.65051c32.53464,-32.57133 85.29797,-32.55299 117.88764,0c32.55297,32.51632 32.58967,85.31634 0.03668,117.90601c-6.23551,6.23551 -13.33297,10.87545 -20.7422,14.74513c-0.07335,0.03668 -0.11004,0.11004 -0.18339,0.18339l-57.2749,57.27493c40.12728,5.79535 82.38196,-6.23551 113.26603,-37.10123c51.93805,-51.93807 51.90136,-136.1357 0,-188.07376c-51.97473,-51.93807 -136.17232,-51.93807 -188.11038,-0.01834l0,-0.00004zm-20.35708,320.32144c-3.83301,7.42759 -8.47295,14.50671 -14.6901,20.74222c-32.55297,32.53465 -85.38967,32.53465 -117.94265,0c-32.55297,-32.53465 -32.55297,-85.33468 0,-117.92436c6.21717,-6.19883 13.29629,-10.83878 20.68719,-14.67177c0.07335,-0.11004 0.09171,-0.22007 0.20173,-0.29344l57.23822,-57.27493c-40.10894,-5.79535 -82.32695,6.27218 -113.19268,37.11959c-51.91972,51.91974 -51.90136,136.1357 0,188.07376c51.95639,51.91974 136.15399,51.91974 188.11038,0c30.88406,-30.88408 42.9516,-73.10209 37.10123,-113.24773l-57.31159,57.27493c-0.05501,0.12838 -0.12838,0.16506 -0.20173,0.20173zm-93.82593,-58.35697l40.29234,40.29235c9.84843,9.84843 25.98736,9.84843 35.81745,0l152.25624,-152.25629c9.8851,-9.83009 9.8851,-25.98737 0.03668,-35.79913l-40.32901,-40.29235c-9.83009,-9.8851 -25.96902,-9.8851 -35.79911,-0.03668l-152.25624,152.27465c-9.86676,9.84843 -9.86676,25.98737 -0.01834,35.81746l0,-0.00002z" id="svg_3"/>
 </g>

</svg>